<?xml version="1.0" encoding="utf-8"?>
<svg version="1.1" xmlns:xlink="http://www.w3.org/1999/xlink" width="43px" height="43px" xmlns="http://www.w3.org/2000/svg">
  <g transform="matrix(1 0 0 1 -90 -15 )">
    <path d="M 43 21.5  C 43 9.625869140625001  33.374130859375 0  21.5 0  C 9.625869140625 0  0 9.625869140625  0 21.5  C 0 33.3740888671875  9.625869140625 43  21.5 43  C 33.374130859375 43  43 33.374130859375  43 21.5  Z M 16.7130166015625 32.600928710937495  L 12.81954296875 32.600928710937495  L 15.45564453125 29.5215576171875  C 15.822992187499999 30.84225390625  16.094345703125 31.6456064453125  16.7130166015625 32.600928710937495  Z M 18.1823232421875 32.600928710937495  C 18.1823232421875 32.600928710937495  17.8638125 31.83192578125  17.809474609375 31.679956054687498  C 17.802419921875 31.66362109375  17.7986826171875 31.647412109375  17.7914599609375 31.632798828124997  C 17.7389697265625 31.479107421874996  17.6865634765625 31.323526367187497  17.63218359375 31.164249999999996  C 17.62865625 31.151694335937496  17.6249609375 31.137165039062495  17.6195859375 31.124567382812494  C 17.328328125 30.245292968749993  17.046056640625 29.257300781249995  16.7891484375 28.160926757812494  L 16.7891484375 28.159037109374996  C 16.105179687499998 25.206398437499995  15.6348251953125 23.386289062499994  15.8592314453125 18.949940429687494  C 15.363429687499998 19.409502929687495  14.6904208984375 20.205632812499996  14.0480244140625 21.273074218749993  C 13.165222656249998 22.73666992187499  12.761719726562498 25.088736328124995  12.294892578124998 24.985645507812492  C 12.028956054687498 24.926016601562495  11.5929091796875 21.880911132812493  12.255167968749998 20.590953124999995  C 12.986083984374998 19.174220703124995  14.245345703124997 18.642389648437494  15.196972656249997 18.446958007812494  C 12.027234374999997 17.716125976562495  9.280693359374997 18.689294921874993  7.851321289062496 19.042197265624996  C 7.323059570312496 19.174220703124995  6.805589843749997 19.349748046874993  6.707748046874997 19.290161132812493  C 6.505219726562496 19.167082031249993  7.380966796874997 18.329253906249992  8.039530273437496 17.940364257812494  C 8.510010742187497 17.665273437499994  9.541128906249996 16.968665039062493  11.379462890624996 16.97962499999999  C 12.975208007812494 16.98873730468749  14.538409179687495 17.45182714843749  15.497342773437495 17.80283984374999  C 15.472021484374995 17.77756054687499  15.450353515624993 17.75585058593749  15.421378906249995 17.728597656249992  C 13.414908203124995 15.682360351562494  10.742609374999994 15.883208984374994  9.447192382812494 15.801702148437492  C 8.973142578124994 15.772895507812493  8.481078124999993 15.800022460937491  8.441185546874994 15.696847656249991  C 8.354345703124993 15.477984374999993  9.488764648437494 14.792293945312492  10.205277343749994 14.56247070312499  C 10.717204101562494 14.397693359374992  11.886014648437493 13.932881835937492  13.277383789062494 14.589597656249992  C 14.113238281249995 14.983904296874991  14.813374023437495 15.631801757812493  15.341761718749993 16.243249999999993  C 15.030515624999994 15.713098632812493  14.722964843749994 15.188406249999991  14.498684570312493 14.792251953124993  C 13.811188476562492 13.565408203124992  13.246729492187493 12.821810546874994  12.948081054687494 11.951648437499992  C 12.649642578124993 11.083124023437492  12.587998046874995 10.417337890624992  12.870311523437495 10.401002929687493  C 13.152583007812494 10.384667968749993  14.970844726562495 10.370222656249993  15.927930664062496 12.045752929687492  C 16.506876953124994 13.060662109374992  16.727713867187497 14.357926757812493  16.807163085937496 15.44523046874999  C 17.038791992187495 14.87543847656249  17.353733398437495 14.298171874999992  17.780667968749995 13.80795507812499  C 18.786716796874995 12.653631835937492  20.047742187499995 12.61373925781249  20.581378906249995 12.56120703124999  C 21.332199218749995 12.48713281249999  22.649368164062494 12.66459179687499  22.660244140624997 12.899622070312493  C 22.663813476562495 13.011867187499991  22.202529296874996 13.180213867187492  21.779164062499998 13.39538183593749  C 20.628368164062497 13.98528808593749  18.097163085937495 14.864520507812491  17.089476562499996 17.533291992187493  C 17.078684570312497 17.55684960937499  17.071293945312497 17.574864257812493  17.062349609374994 17.59829589843749  C 17.892745117187495 17.048282226562492  19.398123046874996 16.172745117187493  21.055428710937495 15.790910156249993  C 22.846647460937493 15.378336914062492  24.008193359374996 15.832482421874992  24.527510742187495 16.000661132812493  C 25.25662109374999 16.23598535156249  26.298825195312496 16.86011523437499  26.128630859374994 17.024892578124994  C 26.047208007812497 17.104383789062492  25.502611328124996 17.046602539062494  24.956292968749995 17.033836914062494  C 24.004498046874993 17.012084960937496  22.452172851562494 16.860115234374994  20.679220703124997 17.135164062499996  C 22.061477539062494 17.725028320312497  23.763966796874996 19.601239257812495  23.649958007812494 19.818380859374997  C 23.43281640624999 20.241620117187495  21.344838867187494 19.049377929687495  19.640543945312494 18.790622070312494  C 18.460815429687493 18.609635742187493  17.455060546874993 18.607956054687495  16.78003613281249 18.682030273437494  C 16.78188378906249 18.747202148437495  16.78003613281249 18.808678710937496  16.767438476562493 18.855751953124994  C 16.597412109374993 19.590237304687495  16.88325292968749 22.145041992187494  18.23300781249999 26.697079101562498  C 18.279997070312493 26.863662109374996  18.332487304687493 27.0264658203125  18.384851562499993 27.192964843749994  C 18.41029882812499 27.279804687499993  18.439231445312494 27.368408203124996  18.466358398437492 27.455248046874996  C 18.524468762540167 27.634898240998815  18.584169999861533 27.814029948853808  18.64545507812499 27.992622070312496  C 18.671093361251035 28.065480106414476  18.696414889433207 28.13844921996541  18.72141894531249 28.211527343749996  C 18.79192382812499 28.414181640624996  18.86616601562499 28.614946289062495  18.94212988281249 28.817726562499995  C 18.96031249999999 28.866521484374996  18.97828515624999 28.915400390624995  18.99646777343749 28.9641953125  C 19.29322656249999 29.729586914062498  19.61883398437499 30.4785595703125  19.984333984374988 31.1950302734375  C 19.99155664062499 31.2094755859375  19.99877929687499 31.220435546875  20.00423828124999 31.234796874999997  C 20.11828906249999 31.4537861328125  20.23414550781249 31.6709697265625  20.353487304687487 31.884458007812494  C 20.38056812407197 31.93122968454537  20.40829965969018 31.977621561899607  20.436673828124988 32.0236201171875  C 20.53800097656249 32.201037109375  20.827537109374987 32.6008447265625  20.827537109374987 32.6008447265625  L 18.182323242187486 32.6008447265625  Z M 25.650927734375 24.985645507812503  L 21.10611328125 30.332048828125  L 21.0951953125 30.344688476562503  C 19.9698046875 28.531885742187505  19.9427197265625 27.43534375  19.531994140625002 25.222775390625003  L 22.640423828125 21.486562500000005  L 25.650927734375 24.985645507812503  Z M 36.3220244140625 32  L 22.922527343749998 32  L 22.249518554687498 31.647412109375  L 28.860684570312497 24.254813476562497  L 36.3220244140625 32  Z " fill-rule="nonzero" fill="#ffffff" stroke="none" transform="matrix(1 0 0 1 90 15 )" />
  </g>
</svg>